HIERARCHY
ROOT pelvis
{
  OFFSET 0 100 0
  CHANNELS 6 Xposition Yposition Zposition Zrotation Xrotation Yrotation
  JOINT pelvis_right_femur
  {
    OFFSET -10.78128 -3.44521 -0.5502486
    CHANNELS 3 Zrotation Xrotation Yrotation
    JOINT right_femur_tibia
    {
      OFFSET -0.8047443 -44.0398 -0.1307829
      CHANNELS 3 Zrotation Xrotation Yrotation
      JOINT right_tibia_foot
      {
        OFFSET 3.006224 -47.83518 -5
        CHANNELS 3 Zrotation Xrotation Yrotation
        End Site
        {
          OFFSET 0 -5 15
        }
      }
    }
  }
  JOINT pelvis_left_femur
  {
    OFFSET 10.78128 -3.44521 -0.5502486
    CHANNELS 3 Zrotation Xrotation Yrotation
    JOINT left_femur_tibia
    {
      OFFSET 0.8047443 -44.0398 -0.1307829
      CHANNELS 3 Zrotation Xrotation Yrotation
      JOINT left_tibia_foot
      {
        OFFSET -4.370144 -48.10324 -4.275266
        CHANNELS 3 Zrotation Xrotation Yrotation
        End Site
        {
          OFFSET 0 -5 15
        }
      }
    }
  }
  JOINT pelvis_spine1
  {
    OFFSET 0 6.468898 -3.129235
    CHANNELS 3 Zrotation Xrotation Yrotation
    JOINT spine1
    {
      OFFSET 0 23.15396 4.99043
      CHANNELS 3 Zrotation Xrotation Yrotation
      JOINT spine2
      {
        OFFSET 0 20.79997 -5.064912
        CHANNELS 3 Zrotation Xrotation Yrotation
        JOINT neck
        {
          OFFSET 0 14.38658 9.616178
          CHANNELS 3 Zrotation Xrotation Yrotation
          End Site
          {
            OFFSET 0 20 0
          }
        }
      }
      JOINT right_manubrium
      {
        OFFSET -5.722621 16.35077 3.967754
        CHANNELS 3 Zrotation Xrotation Yrotation
        JOINT right_clavicle
        {
          OFFSET -13.16364 1.694482 -4.693211
          CHANNELS 3 Zrotation Xrotation Yrotation
          JOINT right_humerus
          {
            OFFSET -28.5034 -0.3100689 -2.792744
            CHANNELS 3 Zrotation Xrotation Yrotation
            JOINT right_radius
            {
              OFFSET -25.15693 0.02248979 -1.271978
              CHANNELS 3 Zrotation Xrotation Yrotation
              End Site
              {
                OFFSET -15 0 0
              }
            }
          }
        }
      }
      JOINT left_manubrium
      {
        OFFSET 5.722621 16.35077 3.967754
        CHANNELS 3 Zrotation Xrotation Yrotation
        JOINT left_clavicle
        {
          OFFSET 13.16364 1.694482 -4.693211
          CHANNELS 3 Zrotation Xrotation Yrotation
          JOINT left_humerus
          {
            OFFSET 29.39168 -1.063119 -2.237045
            CHANNELS 3 Zrotation Xrotation Yrotation
            JOINT left_radius
            {
              OFFSET 24.59957 -0.9528479 0.9047498
              CHANNELS 3 Zrotation Xrotation Yrotation
              End Site
              {
                OFFSET 15 -0 -0
              }
            }
          }
        }
      }
    }
  }
}
MOTION
Frames: 23
Frame Time: 0.0416666666667
-1504.309 88.93859 1191.784 -4.696538 15.4939 -167.1289 2.364526 6.76658 10.10792 -0 38.1092 -0 10.87777 -25.48725 -9.376496 -2.669791 -4.784353 -10.60528 -0 41.92106 -0 -15.79141 -14.17394 20.1252 -2.394135 -0.6395343 8.530599 -1.188524 12.85145 -5.343459 -2.345751 19.48584 7.358354 9.075402 -13.53088 -0.3581835 2.223295 -25.31986 10.78088 86.9146 32.83327 -13.51835 -0 0 25.69322 -17.04027 4.374536 5.647247 4.948772 -26.39243 -12.16744 -90.30655 4.198312 30.83961 0 0 -14.01972 11.36132 5.010643 -1.007978
-1505.913 88.95978 1185.523 -4.561414 15.53979 -167.6428 2.35978 6.758565 10.10329 -0 38.14411 -0 10.87216 -25.49869 -9.385662 -2.674127 -4.758101 -10.61332 -0 41.89024 -0 -15.78799 -14.17725 20.11636 -2.39464 -0.6392349 8.530691 -1.188621 12.85091 -5.343599 -2.346059 19.48562 7.358517 9.075818 -13.53036 -0.3586882 2.223068 -25.31969 10.78044 86.91551 32.83486 -13.51924 -0 0 25.69339 -17.03881 4.372942 5.646271 4.948482 -26.39266 -12.16814 -90.3052 4.197791 30.83916 0 0 -14.02301 11.36063 5.009241 -1.00709
-1507.462 88.98163 1179.249 -4.426759 15.58669 -168.1543 2.355564 6.743158 10.10006 -0 38.18034 -0 10.86319 -25.5109 -9.399617 -2.678657 -4.718706 -10.62333 -0 41.8656 -0 -15.78524 -14.18069 20.10775 -2.395361 -0.6388859 8.530197 -1.188786 12.85018 -5.344042 -2.346244 19.48556 7.358808 9.076588 -13.52957 -0.3592581 2.223038 -25.31801 10.78 86.91731 32.83661 -13.52212 -0 0 25.69157 -17.03719 4.370764 5.644551 4.948672 -26.39354 -12.16934 -90.3019 4.196969 30.83499 0 0 -14.03081 11.36063 5.008444 -1.007878
-1508.955 89.00464 1172.962 -4.292249 15.63397 -168.6637 2.352171 6.721652 10.09844 -0 38.21523 -0 10.8516 -25.52301 -9.417225 -2.683039 -4.669347 -10.63452 -0 41.84866 -0 -15.78333 -14.18403 20.09995 -2.39624 -0.6385134 8.529169 -1.189005 12.8493 -5.344748 -2.346297 19.48567 7.3592 9.077647 -13.52858 -0.3598512 2.223204 -25.31498 10.77959 86.91985 32.8384 -13.52673 -0 0 25.68796 -17.03551 4.368174 5.642228 4.949313 -26.39501 -12.17093 -90.29692 4.195913 30.82752 0 0 -14.04243 11.36129 5.008293 -1.010237
-1510.393 89.0292 1166.663 -4.157541 15.68094 -169.1715 2.349826 6.695746 10.09847 -0 38.2463 -0 10.8383 -25.53416 -9.437127 -2.686954 -4.613821 -10.64607 -0 41.84039 -0 -15.78238 -14.18702 20.09351 -2.39721 -0.6381444 8.527695 -1.189263 12.84836 -5.34566 -2.346218 19.48592 7.359664 9.078912 -13.52745 -0.3604249 2.223548 -25.31086 10.77924 86.92291 32.84009 -13.53268 -0 0 25.68287 -17.03391 4.365368 5.639488 4.950347 -26.39692 -12.1728 -90.29068 4.194705 30.81737 0 0 -14.05694 11.36255 5.008777 -1.013952
-1511.775 89.0556 1160.353 -4.022306 15.72683 -169.6783 2.348673 6.667416 10.10013 -0 38.27142 -0 10.82428 -25.54358 -9.457842 -2.69013 -4.556258 -10.65712 -0 41.84113 -0 -15.78242 -14.18946 20.08885 -2.3982 -0.637805 8.525894 -1.189538 12.84741 -5.346705 -2.346015 19.48631 7.360165 9.080287 -13.52629 -0.3609385 2.224039 -25.30597 10.77898 86.92628 32.84157 -13.53952 -0 0 25.67669 -17.03248 4.362552 5.636537 4.951689 -26.39914 -12.17478 -90.28365 4.193433 30.80533 0 0 -14.07322 11.36429 5.009845 -1.018718
-1513.101 89.08397 1154.032 -3.886247 15.7709 -170.1848 2.348763 6.638763 10.10323 -0 38.28897 -0 10.81056 -25.55064 -9.47787 -2.692362 -4.500815 -10.6669 -0 41.8506 -0 -15.78343 -14.19117 20.08626 -2.399138 -0.6375189 8.523903 -1.189812 12.84652 -5.347806 -2.345707 19.48679 7.360664 9.081669 -13.52517 -0.3613567 2.22464 -25.30068 10.77881 86.92969 32.84273 -13.54672 -0 0 25.6699 -17.03133 4.35993 5.633592 4.953234 -26.4015 -12.17676 -90.27636 4.19219 30.79233 0 0 -14.09006 11.36638 5.011405 -1.024169
-1514.37 89.11431 1147.7 -3.749128 15.81245 -170.6917 2.350055 6.611857 10.10753 -0 38.29792 -0 10.79812 -25.5549 -9.495807 -2.693522 -4.451383 -10.67476 -0 41.86791 -0 -15.7853 -14.19206 20.08585 -2.399958 -0.637305 8.521868 -1.190064 12.84577 -5.348883 -2.345319 19.48732 7.361128 9.082961 -13.52416 -0.3616521 2.225305 -25.29538 10.77876 86.93292 32.84351 -13.55377 -0 0 25.663 -17.03054 4.357682 5.630864 4.954868 -26.40383 -12.17857 -90.26934 4.191065 30.77932 0 0 -14.10624 11.36866 5.013333 -1.029896
-1515.582 89.14649 1141.357 -3.610782 15.85091 -171.1996 2.352417 6.588585 10.1127 -0 38.29793 -0 10.78782 -25.55612 -9.510435 -2.693567 -4.411317 -10.68018 -0 41.89165 -0 -15.78788 -14.19207 20.08761 -2.400605 -0.6371767 8.519936 -1.190277 12.84518 -5.349859 -2.344879 19.48788 7.361523 9.084073 -13.52335 -0.3618068 2.225984 -25.29044 10.77881 86.93572 32.84385 -13.56017 -0 0 25.65649 -17.03014 4.355961 5.628542 4.956472 -26.40596 -12.1801 -90.26308 4.190134 30.76721 0 0 -14.12062 11.37097 5.015482 -1.035486
-1516.738 89.18025 1135.004 -3.471122 15.88585 -171.7091 2.355645 6.570518 10.11834 -0 38.28929 -0 10.78032 -25.55429 -9.520806 -2.692536 -4.383211 -10.68287 -0 41.91998 -0 -15.79097 -14.19123 20.09136 -2.401037 -0.6371406 8.518242 -1.190438 12.84482 -5.350668 -2.344421 19.48842 7.361824 9.084931 -13.52277 -0.3618137 2.226629 -25.28622 10.77897 86.93791 32.84375 -13.56548 -0 0 25.65081 -17.03017 4.354873 5.626779 4.957933 -26.40774 -12.18124 -90.258 4.189459 30.75685 0 0 -14.13224 11.37314 5.017694 -1.040545
-1517.838 89.21523 1128.642 -3.330144 15.917 -172.2206 2.359478 6.558803 10.12404 -0 38.27289 -0 10.77609 -25.54964 -9.526302 -2.690541 -4.368736 -10.68271 -0 41.95077 -0 -15.79433 -14.18961 20.09675 -2.401231 -0.6371967 8.516898 -1.190537 12.84468 -5.351257 -2.343978 19.4889 7.362013 9.085482 -13.52247 -0.3616768 2.227196 -25.28298 10.77922 86.93935 32.84323 -13.56936 -0 0 25.64635 -17.0306 4.354478 5.625686 4.95915 -26.40906 -12.18193 -90.25443 4.189079 30.74893 0 0 -14.14034 11.37502 5.019808 -1.044729
-1518.882 89.25098 1122.27 -3.187921 15.94431 -172.7344 2.363619 6.554091 10.1294 -0 38.25013 -0 10.77533 -25.54257 -9.526668 -2.687759 -4.368541 -10.6798 -0 41.98173 -0 -15.79772 -14.18737 20.10337 -2.40118 -0.6373378 8.515992 -1.190569 12.84479 -5.351588 -2.343582 19.48929 7.362079 9.085695 -13.52246 -0.3614105 2.227647 -25.28094 10.77954 86.93997 32.84234 -13.57156 -0 0 25.64339 -17.03139 4.354781 5.62532 4.960045 -26.40984 -12.18213 -90.25258 4.189014 30.74394 0 0 -14.14445 11.37648 5.021675 -1.047763
-1519.869 89.28703 1115.889 -3.044589 15.96788 -173.2506 2.367764 6.556509 10.13403 -0 38.22284 -0 10.77799 -25.53366 -9.522023 -2.684408 -4.382234 -10.67444 -0 42.01065 -0 -15.80089 -14.18469 20.1107 -2.400895 -0.6375511 8.515576 -1.190534 12.84511 -5.351647 -2.34326 19.48956 7.362022 9.085567 -13.52273 -0.3610383 2.227952 -25.2802 10.77989 86.93974 32.84115 -13.57197 -0 0 25.6421 -17.03248 4.355741 5.625687 4.960562 -26.41004 -12.18184 -90.25254 4.189257 30.74215 0 0 -14.1444 11.37744 5.023168 -1.049462
-1520.801 89.32288 1109.5 -2.900338 15.98802 -173.7693 2.371616 6.565665 10.13762 -0 38.19305 -0 10.78379 -25.52363 -9.512838 -2.68074 -4.408442 -10.66707 -0 42.03547 -0 -15.80363 -14.18178 20.1182 -2.400403 -0.6378188 8.515666 -1.190438 12.84563 -5.351436 -2.343032 19.4897 7.36185 9.085117 -13.52325 -0.3605903 2.228094 -25.28078 10.78027 86.9387 32.83977 -13.57063 -0 0 25.64253 -17.03377 4.357267 5.626739 4.960675 -26.40965 -12.1811 -90.25425 4.189782 30.7436 0 0 -14.14029 11.37783 5.024188 -1.049741
-1521.678 89.35806 1103.102 -2.755392 16.00517 -174.2901 2.374913 6.5807 10.13994 -0 38.16295 -0 10.79221 -25.51321 -9.499898 -2.677017 -4.444935 -10.65828 -0 42.05451 -0 -15.80575 -14.17886 20.12532 -2.399745 -0.63812 8.516242 -1.190288 12.84629 -5.350978 -2.342914 19.4897 7.361578 9.084387 -13.52398 -0.3601013 2.228067 -25.2826 10.78063 86.93695 32.83829 -13.56767 -0 0 25.6446 -17.03517 4.359234 5.628381 4.960386 -26.40873 -12.17997 -90.25753 4.190543 30.74811 0 0 -14.13256 11.37764 5.024674 -1.048621
-1522.5 89.39215 1096.696 -2.60999 16.01989 -174.8128 2.37744 6.600362 10.14086 -0 38.13466 -0 10.80258 -25.50319 -9.484233 -2.673499 -4.488809 -10.64872 -0 42.06654 -0 -15.80712 -14.17614 20.13156 -2.398975 -0.6384319 8.517248 -1.190097 12.84705 -5.350313 -2.34291 19.48956 7.361229 9.083436 -13.52485 -0.3596075 2.227878 -25.28549 10.78096 86.93464 32.83683 -13.56335 -0 0 25.64811 -17.03657 4.361489 5.63048 4.959728 -26.40735 -12.17854 -90.26212 4.191477 30.75525 0 0 -14.12184 11.37691 5.024607 -1.046218
-1523.267 89.42482 1090.282 -2.464369 16.03283 -175.337 2.379045 6.62311 10.14035 -0 38.11013 -0 10.81411 -25.49426 -9.467041 -2.670424 -4.536715 -10.6391 -0 42.0709 -0 -15.80766 -14.17381 20.1365 -2.398149 -0.638732 8.518601 -1.189881 12.84785 -5.349493 -2.343018 19.4893 7.360829 9.08234 -13.52581 -0.3591445 2.227546 -25.28923 10.78122 86.93194 32.83549 -13.55802 -0 0 25.65278 -17.03788 4.363861 5.632872 4.958758 -26.40563 -12.17693 -90.26765 4.192512 30.76444 0 0 -14.109 11.37569 5.024005 -1.042742
-1523.979 89.45587 1083.861 -2.318747 16.04464 -175.862 2.379643 6.647238 10.13849 -0 38.09097 -0 10.82593 -25.48702 -9.449594 -2.667994 -4.585113 -10.63009 -0 42.06749 -0 -15.80735 -14.17202 20.13983 -2.397329 -0.6389991 8.520194 -1.189656 12.84864 -5.348582 -2.343226 19.48894 7.360409 9.081179 -13.52678 -0.3587442 2.227099 -25.29351 10.78141 86.92907 32.83437 -13.55208 -0 0 25.65823 -17.039 4.36618 5.635379 4.957555 -26.4037 -12.17525 -90.27369 4.193572 30.77497 0 0 -14.09501 11.3741 5.022929 -1.03847
-1524.637 89.4852 1077.434 -2.17331 16.05597 -176.3874 2.379223 6.670992 10.13545 -0 38.07842 -0 10.8372 -25.48195 -9.433148 -2.666367 -4.630532 -10.62233 -0 42.05682 -0 -15.80625 -14.17088 20.14137 -2.396572 -0.6392154 8.521906 -1.189437 12.84935 -5.347648 -2.343516 19.48851 7.359999 9.08004 -13.52769 -0.358433 2.226571 -25.29802 10.78151 86.92622 32.83353 -13.54599 -0 0 25.66406 -17.03986 4.368281 5.637819 4.95621 -26.40169 -12.17363 -90.2798 4.194579 30.78605 0 0 -14.0809 11.37225 5.02147 -1.033733
-1525.24 89.51286 1071.001 -2.0282 16.06738 -176.9125 2.377842 6.692703 10.13149 -0 38.0732 -0 10.84713 -25.47933 -9.418847 -2.66564 -4.669814 -10.61633 -0 42.03988 -0 -15.80444 -14.17043 20.14105 -2.395931 -0.6393668 8.523611 -1.18924 12.84993 -5.346757 -2.343866 19.48804 7.359628 9.079002 -13.52848 -0.3582303 2.226003 -25.30243 10.78152 86.92361 32.83303 -13.54017 -0 0 25.66984 -17.0404 4.370022 5.64002 4.954826 -26.39977 -12.17218 -90.28554 4.195464 30.79687 0 0 -14.06768 11.37029 5.019743 -1.028883
-1525.788 89.53901 1064.562 -1.883509 16.07935 -177.4369 2.375623 6.710891 10.12692 -0 38.0755 -0 10.85506 -25.47926 -9.407654 -2.665845 -4.700336 -10.61248 -0 42.01809 -0 -15.80209 -14.1707 20.13896 -2.395447 -0.6394447 8.525187 -1.189079 12.85036 -5.345972 -2.344248 19.48757 7.359322 9.078137 -13.52909 -0.3581474 2.225437 -25.30642 10.78144 86.9214 32.8329 -13.53504 -0 0 25.67514 -17.0406 4.37129 5.641832 4.953501 -26.39805 -12.17099 -90.29051 4.196168 30.80667 0 0 -14.05627 11.36836 5.01788 -1.02427
-1526.282 89.5639 1058.119 -1.739278 16.09219 -177.9601 2.372744 6.724369 10.12209 -0 38.08496 -0 10.86047 -25.48169 -9.400278 -2.666949 -4.720175 -10.61099 -0 41.99316 -0 -15.79938 -14.17163 20.13529 -2.395152 -0.6394454 8.526526 -1.188965 12.8506 -5.345346 -2.344634 19.48712 7.3591 9.077502 -13.5295 -0.3581867 2.224914 -25.30972 10.78127 86.91976 32.83312 -13.53094 -0 0 25.67962 -17.04046 4.372006 5.643138 4.95233 -26.39667 -12.17016 -90.29438 4.196644 30.81476 0 0 -14.04743 11.3666 5.016019 -1.020218
-1526.72 89.5879 1051.671 -1.595496 16.10606 -178.4818 2.369425 6.732313 10.11736 -0 38.10071 -0 10.86306 -25.48636 -9.397134 -2.668853 -4.728227 -10.6119 -0 41.96698 -0 -15.79651 -14.17315 20.13036 -2.39506 -0.639371 8.527539 -1.188904 12.85065 -5.344919 -2.344996 19.48674 7.358977 9.077136 -13.52966 -0.3583421 2.22447 -25.31212 10.78104 86.91877 32.83369 -13.52814 -0 0 25.68297 -17.03999 4.372136 5.643857 4.951391 -26.3957 -12.16971 -90.2969 4.196866 30.82063 0 0 -14.04172 11.36512 5.014291 -1.016999
